<svg width="1132" height="437" viewBox="0 0 1132 437" fill="none" xmlns="http://www.w3.org/2000/svg">
<path d="M569 61.5H576.5V46.5H569V61.5ZM0 54L75 97.3013V10.6987L0 54ZM569 46.5L67.5 46.5V61.5L569 61.5V46.5Z" fill="#118A92"/>
<path d="M566 363.5L558.5 363.5L558.5 378.5L566 378.5L566 363.5ZM1132 371L1057 327.699L1057 414.301L1132 371ZM566 378.5L1064.5 378.5L1064.5 363.5L566 363.5L566 378.5Z" fill="#118A92"/>
<path d="M114.28 306V158.32H56.04V124H214.64V158.32H156.4V306H114.28ZM204.242 306L285.362 124H326.962L408.342 306H364.142L297.582 145.32H314.222L247.402 306H204.242ZM244.802 267L255.982 235.02H349.582L361.022 267H244.802ZM427.225 306V124H516.145C539.025 124 556.185 128.333 567.625 137C579.238 145.667 585.045 157.107 585.045 171.32C585.045 180.853 582.705 189.173 578.025 196.28C573.345 203.213 566.931 208.587 558.785 212.4C550.638 216.213 541.278 218.12 530.705 218.12L535.645 207.46C547.085 207.46 557.225 209.367 566.065 213.18C574.905 216.82 581.751 222.28 586.605 229.56C591.631 236.84 594.145 245.767 594.145 256.34C594.145 271.94 587.991 284.16 575.685 293C563.378 301.667 545.265 306 521.345 306H427.225ZM469.085 274.28H518.225C529.145 274.28 537.378 272.547 542.925 269.08C548.645 265.44 551.505 259.72 551.505 251.92C551.505 244.293 548.645 238.66 542.925 235.02C537.378 231.207 529.145 229.3 518.225 229.3H465.965V198.62H510.945C521.171 198.62 528.971 196.887 534.345 193.42C539.891 189.78 542.665 184.32 542.665 177.04C542.665 169.933 539.891 164.647 534.345 161.18C528.971 157.54 521.171 155.72 510.945 155.72H469.085V274.28ZM626.033 306V124H714.953C737.833 124 754.993 128.333 766.433 137C778.046 145.667 783.853 157.107 783.853 171.32C783.853 180.853 781.513 189.173 776.833 196.28C772.153 203.213 765.74 208.587 757.593 212.4C749.446 216.213 740.086 218.12 729.513 218.12L734.453 207.46C745.893 207.46 756.033 209.367 764.873 213.18C773.713 216.82 780.56 222.28 785.413 229.56C790.44 236.84 792.953 245.767 792.953 256.34C792.953 271.94 786.8 284.16 774.493 293C762.186 301.667 744.073 306 720.153 306H626.033ZM667.893 274.28H717.033C727.953 274.28 736.186 272.547 741.733 269.08C747.453 265.44 750.313 259.72 750.313 251.92C750.313 244.293 747.453 238.66 741.733 235.02C736.186 231.207 727.953 229.3 717.033 229.3H664.773V198.62H709.753C719.98 198.62 727.78 196.887 733.153 193.42C738.7 189.78 741.473 184.32 741.473 177.04C741.473 169.933 738.7 164.647 733.153 161.18C727.78 157.54 719.98 155.72 709.753 155.72H667.893V274.28ZM824.842 306V124H866.962V306H824.842ZM947.854 264.4L945.514 215.78L1032.61 124H1079.41L1000.89 208.5L977.494 233.46L947.854 264.4ZM910.154 306V124H952.014V306H910.154ZM1034.69 306L969.954 226.7L997.514 196.8L1083.83 306H1034.69Z" fill="#29393D"/>
</svg>
